<?xml version="1.0" encoding="UTF-8"?>
<svg viewBox="0 0 651.17688 45.146111" xmlns="http://www.w3.org/2000/svg">
 <g transform="matrix(1.9494 0 0 1.9494 -18.171 -1201.3)" fill="none" stroke="#000" stroke-linecap="round" stroke-linejoin="round" stroke-width="6">
  <path d="m20.53 619.98h36.462a8.2093 8.2093 0 0 1 8.2093 8.2093 8.2093 8.2093 0 0 1 -8.2093 8.2093h-36.462a8.2093 8.2093 0 0 1 -8.2093 -8.2093 8.2093 8.2093 0 0 1 8.2093 -8.2093"/>
  <path d="m60.51 625.18h48.189a2.7988 2.7988 0 0 1 2.7988 2.7988 2.7988 2.7988 0 0 1 -2.7988 2.7988h-48.189a2.7988 2.7988 0 0 1 -2.7988 -2.7988 2.7988 2.7988 0 0 1 2.7988 -2.7988"/>
  <path d="m112.1 619.87h36.462a8.2093 8.2093 0 0 1 8.2093 8.2093 8.2093 8.2093 0 0 1 -8.2093 8.2093h-36.462a8.2093 8.2093 0 0 1 -8.2093 -8.2093 8.2093 8.2093 0 0 1 8.2093 -8.2093"/>
  <path d="m152.08 625.07h48.189a2.7988 2.7988 0 0 1 2.7988 2.7988 2.7988 2.7988 0 0 1 -2.7988 2.7988h-48.189a2.7988 2.7988 0 0 1 -2.7988 -2.7988 2.7988 2.7988 0 0 1 2.7988 -2.7988"/>
  <path d="m203.79 619.66h36.462a8.2093 8.2093 0 0 1 8.2093 8.2093 8.2093 8.2093 0 0 1 -8.2093 8.2093h-36.462a8.2093 8.2093 0 0 1 -8.2093 -8.2093 8.2093 8.2093 0 0 1 8.2093 -8.2093"/>
  <path d="m243.77 624.86h48.189a2.7988 2.7988 0 0 1 2.7988 2.7988 2.7988 2.7988 0 0 1 -2.7988 2.7988h-48.189a2.7988 2.7988 0 0 1 -2.7988 -2.7988 2.7988 2.7988 0 0 1 2.7988 -2.7988"/>
  <path d="m295.68 619.24h36.462a8.2093 8.2093 0 0 1 8.2093 8.2093 8.2093 8.2093 0 0 1 -8.2093 8.2093h-36.462a8.2093 8.2093 0 0 1 -8.2093 -8.2093 8.2093 8.2093 0 0 1 8.2093 -8.2093"/>
 </g>
</svg>
